<?xml version="1.0" encoding="UTF-8"?>
<svg width="32" height="32" viewBox="0 0 32 32" fill="none" xmlns="http://www.w3.org/2000/svg">
  <!-- Background -->
  <rect width="32" height="32" rx="6" fill="#2563EB"/>
  
  <!-- Overlapping Tools -->
  <g transform="translate(16 16) rotate(-15) translate(-16 -16)">
    <!-- Wrench -->
    <path d="M12 8.5C12 7.11929 13.1193 6 14.5 6C15.8807 6 17 7.11929 17 8.5C17 9.88071 15.8807 11 14.5 11L14 11L10 15L12 17L16 13L16 12.5C16 11.1193 17.1193 10 18.5 10C19.8807 10 21 11.1193 21 12.5C21 13.8807 19.8807 15 18.5 15L18 15L14 19L16 21L20 17L20 16.5C20 15.1193 21.1193 14 22.5 14C23.8807 14 25 15.1193 25 16.5C25 17.8807 23.8807 19 22.5 19" 
          stroke="white" stroke-width="2" stroke-linecap="round"/>
    <!-- Code Bracket -->
    <path d="M8 12L12 16L8 20" stroke="white" stroke-width="2" stroke-linecap="round" stroke-linejoin="round"/>
  </g>
</svg>
